<svg xmlns="http://www.w3.org/2000/svg" width="256" height="256" viewBox="0 0 256 256" id="adobe-xd-file">
  <path fill="#470137" d="M222,70.44V220a23,23,0,0,1-23,23H57a23,23,0,0,1-23-23V36A23,23,0,0,1,57,13H164.51a23,23,0,0,1,16.27,6.74l34.48,34.44A23,23,0,0,1,222,70.44Z"></path>
  <path fill="#ff61f6" d="M166.06,18a13.94,13.94,0,0,1,9.9,4.1L211.9,58a13.94,13.94,0,0,1,4.1,9.9V224a14,14,0,0,1-14,14H54a14,14,0,0,1-14-14V32A14,14,0,0,1,54,18H166.06m0-10H54A24,24,0,0,0,30,32V224a24,24,0,0,0,24,24H202a24,24,0,0,0,24-24V67.94a24,24,0,0,0-7-17L183,15a24,24,0,0,0-17-7Z"></path>
  <path fill="#ff61f6" d="M132.07 59.21L110.43 96.79l23.32 40c.48.81.28 1.21-.6 1.21H118.57a1.81 1.81 0 01-1.79-1l-16.39-30.42h-.12L84.28 137a1.78 1.78 0 01-1.55 1h-14c-.8 0-1-.4-.48-1.21L91.21 97.88 69.34 59c-.47-.65-.31-1 .48-1H84.4a1.63 1.63 0 011.55.85l15.39 30.06h.12l15.32-30.06a1.64 1.64 0 011.55-.85H131.6C132.47 58 132.63 58.41 132.07 59.21zM164.13 140c-8.62 0-15.25-2.42-20.4-7.27s-7.73-12-7.73-21.45q0-12.9 8.31-21.21a29.81 29.81 0 0121.9-9 22.38 22.38 0 015.42.58V56.69a.61.61 0 01.69-.69h13.57c.39 0 .58.23.58.69v69.82c0 2.92 1.28 5.46 1.51 7.61a.91.91 0 01-.57 1C180.71 138.39 172 140 164.13 140zm7.5-11.42V93c-.48-.85-3-1.58-5.66-1.58a14.61 14.61 0 00-11.42 5 21.5 21.5 0 00-5.19 14.3c0 6.46 2.25 10.87 5.13 14a14.83 14.83 0 0011 5C168.28 129.68 171 129.27 171.63 128.58z"></path>
  <path fill="#fff" d="M131,178.28c8.32-.14,17.09-2.08,22.07,6.63a20.88,20.88,0,0,1-.37,21.93c-5,8.26-13.31,7.28-21.7,6.94Zm5.92,5.52v24.14c4.24,1.05,7.8.24,10-3.31a16.28,16.28,0,0,0,.73-16.72C145.58,183.73,141.61,183,136.92,183.8Z"></path>
  <polygon fill="#fff" points="127 178 114.89 198 106 214 99 214 111 194 120 178 127 178"></polygon>
  <polygon fill="#fff" points="99 178 112 199 119 214 126 214 106 178 99 178"></polygon>
</svg>
