<svg xmlns="http://www.w3.org/2000/svg" width="256" height="256" viewBox="0 0 256 256" id="adobe-illustrator-file">
  <path fill="#300" d="M222,70.44V220a23,23,0,0,1-23,23H57a23,23,0,0,1-23-23V36A23,23,0,0,1,57,13H164.51a23,23,0,0,1,16.27,6.74l34.48,34.44A23,23,0,0,1,222,70.44Z"></path>
  <path fill="#ff9a00" d="M166.06,18a13.94,13.94,0,0,1,9.9,4.1L211.9,58a13.94,13.94,0,0,1,4.1,9.9V224a14,14,0,0,1-14,14H54a14,14,0,0,1-14-14V32A14,14,0,0,1,54,18H166.06m0-10H54A24,24,0,0,0,30,32V224a24,24,0,0,0,24,24H202a24,24,0,0,0,24-24V67.94a24,24,0,0,0-7-17L183,15a24,24,0,0,0-17-7Z"></path>
  <path fill="#ff9a00" d="M166.93 72a8.88 8.88 0 01-6.46-2.4A8.73 8.73 0 01158 63.07a8.81 8.81 0 012.54-6.6A9 9 0 01167.07 54a8.69 8.69 0 016.53 2.47 9.08 9.08 0 012.4 6.6 8.73 8.73 0 01-2.47 6.53A9.08 9.08 0 01166.93 72zM127.24 116H101.15l-6.73 21c-.09.65-.49 1-1.23 1H80.94c-.82 0-1.1-.4-.86-1.22L104 65.21a20.41 20.41 0 001-6.48.64.64 0 01.73-.73h16.88c.49 0 .77.2.85.61l26.46 78.3c.24.73 0 1.09-.61 1.09H135.57a1.28 1.28 0 01-1.23-.73zm-23.15-12h20.33L114 70zM160 136.87V79a.88.88 0 011-1h12a.88.88 0 011 1v58a.88.88 0 01-1 1H161.13A1 1 0 01160 136.87z"></path>
  <path fill="#fff" d="M127.6 204H115.67l-3.08 9.56c0 .29-.22.44-.56.44h-5.6c-.37 0-.5-.18-.39-.55l10.81-32.12a9.51 9.51 0 00.44-3 .3.3 0 01.34-.33h7.84a.35.35 0 01.39.27L138 213.51c.12.33 0 .49-.28.49H131.4a.58.58 0 01-.56-.33zM117 198h9.3c-.16.23-2.77-8.07-3.36-10s-1-3.36-1.35-4.49h0C121.14 185.4 119.63 190.49 117 198zM150 178.44v35.07c0 .33-.15.49-.44.49h-5.12c-.29 0-.44-.16-.44-.49V178.44a.39.39 0 01.44-.44h5.18C149.87 178 150 178.15 150 178.44z"></path>
</svg>
