<svg width="47" height="47" viewBox="0 0 47 47" fill="none" xmlns="http://www.w3.org/2000/svg">
<path d="M16.1064 9.35054C14.6729 9.89206 13.6457 11.2671 13.6457 12.8876C13.6457 13.5117 13.8119 14.0924 14.0803 14.6125C12.9432 15.0496 12.1296 16.146 12.1296 17.4359C12.1296 18.7262 12.9432 19.8222 14.0803 20.2597C13.8119 20.7798 13.6457 21.3605 13.6457 21.9842C13.6457 23.6051 14.6729 24.9801 16.1064 25.5213C15.9928 25.8389 15.9199 26.1764 15.9199 26.5325C15.9199 28.2048 17.2798 29.5647 18.9521 29.5647C19.3296 29.5647 19.6876 29.4866 20.0211 29.3608C20.5122 30.3746 21.5423 31.0808 22.7423 31.0808C24.4146 31.0808 25.7745 29.7209 25.7745 28.0486V6.82322C25.7745 5.15129 24.4146 3.79102 22.7423 3.79102C21.5423 3.79102 20.5122 4.49762 20.0211 5.51106C19.6876 5.38522 19.3296 5.30712 18.9521 5.30712C17.2798 5.30712 15.9199 6.66739 15.9199 8.33932C15.9199 8.69576 15.9928 9.03296 16.1064 9.35054ZM18.9521 6.82322C19.7882 6.82322 20.4682 7.50317 20.4682 8.33932H21.9843C21.9843 7.61088 21.7152 6.9498 21.2855 6.42679C21.4613 5.78423 22.0443 5.30712 22.7423 5.30712C23.5785 5.30712 24.2584 5.98707 24.2584 6.82322V28.0486C24.2584 28.8848 23.5785 29.5647 22.7423 29.5647C22.0443 29.5647 21.4613 29.088 21.2855 28.445C21.7152 27.922 21.9843 27.2613 21.9843 26.5325H20.4682C20.4682 27.3687 19.7882 28.0486 18.9521 28.0486C18.1159 28.0486 17.436 27.3687 17.436 26.5325C17.436 25.6964 18.1159 25.0164 18.9521 25.0164V23.5003C18.2137 23.5003 17.5452 23.7764 17.0192 24.2162C15.9639 24.0196 15.1618 23.0958 15.1618 21.9842C15.1618 20.7306 16.1823 19.7101 17.436 19.7101C18.69 19.7101 19.7101 20.7306 19.7101 21.9842H21.2262C21.2262 19.8944 19.5262 18.194 17.436 18.194C16.5795 18.194 15.797 18.4905 15.1618 18.972V18.952C14.3257 18.952 13.6457 18.2721 13.6457 17.4359C13.6457 16.5998 14.3257 15.9198 15.1618 15.9198V15.9002C15.797 16.3818 16.5795 16.6779 17.436 16.6779C19.5262 16.6779 21.2262 14.9778 21.2262 12.8876H19.7101C19.7101 14.1417 18.69 15.1618 17.436 15.1618C16.1823 15.1618 15.1618 14.1417 15.1618 12.8876C15.1618 11.7765 15.9639 10.8526 17.0192 10.656C17.5452 11.0958 18.2137 11.3715 18.9521 11.3715V9.85542C18.1159 9.85542 17.436 9.17547 17.436 8.33932C17.436 7.50317 18.1159 6.82322 18.9521 6.82322Z" fill="white"/>
<path d="M34.1131 5.30712C33.7356 5.30712 33.378 5.38522 33.0445 5.51106C32.553 4.49762 31.5228 3.79102 30.3228 3.79102C28.6505 3.79102 27.2906 5.15129 27.2906 6.82322V28.0486C27.2906 29.7209 28.6505 31.0808 30.3228 31.0808C31.5228 31.0808 32.553 30.3746 33.0445 29.3608C33.378 29.4866 33.7356 29.5647 34.1131 29.5647C35.7854 29.5647 37.1453 28.2048 37.1453 26.5325C37.1453 26.1764 37.0728 25.8389 36.9587 25.5213C38.3923 24.9801 39.4194 23.6051 39.4194 21.9842C39.4194 21.3605 39.2536 20.7798 38.9853 20.2597C40.1223 19.8222 40.9355 18.7262 40.9355 17.4359C40.9355 16.146 40.1223 15.0496 38.9853 14.6125C39.2536 14.0924 39.4194 13.5117 39.4194 12.8876C39.4194 11.2671 38.3923 9.89206 36.9587 9.35054C37.0728 9.03296 37.1453 8.69576 37.1453 8.33932C37.1453 6.66739 35.7854 5.30712 34.1131 5.30712ZM37.9033 12.8876C37.9033 14.1417 36.8832 15.1618 35.6292 15.1618C34.3755 15.1618 33.355 14.1417 33.355 12.8876H31.8389C31.8389 14.9778 33.5394 16.6779 35.6292 16.6779C36.4857 16.6779 37.2682 16.3818 37.9033 15.9002V15.9198C38.7395 15.9198 39.4194 16.5998 39.4194 17.4359C39.4194 18.2721 38.7395 18.952 37.9033 18.952V18.972C37.2682 18.4905 36.4857 18.194 35.6292 18.194C33.5394 18.194 31.8389 19.8944 31.8389 21.9842H33.355C33.355 20.7306 34.3755 19.7101 35.6292 19.7101C36.8832 19.7101 37.9033 20.7306 37.9033 21.9842C37.9033 23.0958 37.1013 24.0196 36.0463 24.2162C35.52 23.7764 34.8515 23.5003 34.1131 23.5003V25.0164C34.9492 25.0164 35.6292 25.6964 35.6292 26.5325C35.6292 27.3687 34.9492 28.0486 34.1131 28.0486C33.2769 28.0486 32.597 27.3687 32.597 26.5325H31.0809C31.0809 27.2613 31.35 27.922 31.7797 28.445C31.6039 29.088 31.0209 29.5647 30.3228 29.5647C29.4867 29.5647 28.8067 28.8848 28.8067 28.0486V6.82322C28.8067 5.98707 29.4867 5.30712 30.3228 5.30712C31.0209 5.30712 31.6039 5.78423 31.7797 6.42679C31.35 6.9498 31.0809 7.61088 31.0809 8.33932H32.597C32.597 7.50317 33.2769 6.82322 34.1131 6.82322C34.9492 6.82322 35.6292 7.50317 35.6292 8.33932C35.6292 9.17547 34.9492 9.85542 34.1131 9.85542V11.3715C34.8515 11.3715 35.52 11.0958 36.0463 10.656C37.1013 10.8526 37.9033 11.7765 37.9033 12.8876Z" fill="white"/>
<path d="M38.4697 4.72833C34.9274 1.39891 30.2881 -0.27043 25.4192 0.0360471L25.5132 1.54882C29.962 1.27232 34.1964 2.7936 37.4318 5.83284C40.6687 8.87466 42.4517 12.9962 42.4517 17.436C42.4517 22.7864 39.7848 27.7478 35.3176 30.7082C33.7767 31.7298 32.6107 33.187 31.8923 34.8712H21.1415C20.4131 33.1748 19.2427 31.7072 17.6992 30.6764C13.0954 27.5994 10.45 22.4607 10.6221 16.9282L9.10671 16.8812C8.91794 22.9397 11.8158 28.5681 16.8571 31.9363C17.9705 32.6807 18.8596 33.6941 19.4792 34.8712H17.436V36.3873H20.084C20.2309 36.8785 20.3487 37.3819 20.4082 37.9034H18.9521V39.4195H20.4682V41.6936C20.4682 42.113 20.808 42.4517 21.2263 42.4517H21.9843C21.9843 44.9601 24.0242 47 26.5326 47C29.0411 47 31.0809 44.9601 31.0809 42.4517H31.839C32.2576 42.4517 32.597 42.113 32.597 41.6936V39.4195H34.1131V37.9034H32.6503C32.704 37.3826 32.811 36.8777 32.9549 36.3873H35.6292V34.8712H33.5531C34.1638 33.7071 35.0477 32.7062 36.1556 31.9726C41.047 28.7287 43.9678 23.295 43.9678 17.436C43.9678 12.6438 41.9635 8.01149 38.4697 4.72833ZM26.5326 45.4839C24.8603 45.4839 23.5004 44.124 23.5004 42.4517H29.5648C29.5648 44.124 28.2049 45.4839 26.5326 45.4839ZM31.0809 40.9356H21.9843V39.4195H31.0809V40.9356ZM31.135 37.9034H21.9236C21.8729 37.3874 21.7911 36.8803 21.6667 36.3873H31.3707C31.2501 36.8796 31.1801 37.3889 31.135 37.9034Z" fill="white"/>
<path d="M8.33935 5.30708C10.0116 5.30708 11.3715 6.66736 11.3715 8.33928C11.3715 8.75866 11.7113 9.09734 12.1296 9.09734C12.5482 9.09734 12.8876 8.75866 12.8876 8.33928C12.8876 6.66736 14.2475 5.30708 15.9198 5.30708C16.3385 5.30708 16.6779 4.9684 16.6779 4.54903C16.6779 4.13003 16.3385 3.79098 15.9198 3.79098C14.2475 3.79098 12.8876 2.43108 12.8876 0.758783C12.8876 0.339782 12.5482 0.000732422 12.1296 0.000732422C11.7113 0.000732422 11.3715 0.339782 11.3715 0.758783C11.3715 2.43108 10.0116 3.79098 8.33935 3.79098C7.92109 3.79098 7.5813 4.13003 7.5813 4.54903C7.5813 4.9684 7.92109 5.30708 8.33935 5.30708ZM12.1296 3.27019C12.4664 3.77655 12.9021 4.21257 13.4084 4.54903C12.9021 4.88586 12.4664 5.32152 12.1296 5.82787C11.7931 5.32152 11.3571 4.88586 10.8508 4.54903C11.3571 4.21257 11.7931 3.77655 12.1296 3.27019Z" fill="white"/>
<path d="M11.3715 12.8877C11.7901 12.8877 12.1296 12.549 12.1296 12.1296C12.1296 11.7106 11.7901 11.3716 11.3715 11.3716C9.69921 11.3716 8.33931 10.0117 8.33931 8.33935C8.33931 7.92035 7.99989 7.5813 7.58126 7.5813C7.163 7.5813 6.82321 7.92035 6.82321 8.33935C6.82321 10.0117 5.46331 11.3716 3.79101 11.3716C3.37275 11.3716 3.03296 11.7106 3.03296 12.1296C3.03296 12.549 3.37275 12.8877 3.79101 12.8877C5.46331 12.8877 6.82321 14.2479 6.82321 15.9199C6.82321 16.3392 7.163 16.6779 7.58126 16.6779C7.99989 16.6779 8.33931 16.3392 8.33931 15.9199C8.33931 14.2479 9.69921 12.8877 11.3715 12.8877ZM7.58126 13.4084C7.2448 12.9021 6.80877 12.4664 6.30242 12.1296C6.80877 11.7931 7.24406 11.3571 7.58126 10.8508C7.91809 11.3571 8.35374 11.7924 8.8601 12.1296C8.35374 12.4664 7.91809 12.9021 7.58126 13.4084Z" fill="white"/>
</svg>
